<svg width="357" height="395" viewBox="0 0 357 395" fill="none" xmlns="http://www.w3.org/2000/svg">
<path d="M206.549 282.935C227.798 295.421 250.549 281.676 255.619 271.543C258.24 266.305 264.948 254.82 263.127 245.059C260.85 232.858 254.021 225.207 237.466 219.83C220.91 214.454 211.213 218.744 197.348 233.426C183.483 248.109 185.859 270.777 206.549 282.935Z" fill="#FFE6FC"/>
<path d="M344.506 79.4037C338.386 69.4188 264.404 72.7617 228.179 75.6812C224.654 74.7324 212.609 70.8639 192.628 62.9811C167.653 53.1275 143.352 82.0313 133.452 93.4176C123.552 104.804 113.877 119.037 97.2267 117.066C80.5764 115.095 58.3011 97.1401 38.9508 72.8347C23.4706 53.3903 5.20023 36.9969 -1.99988 31.2307V276.913C-0.499847 277.643 4.6152 278.665 13.0754 276.913C21.5355 275.161 83.8015 265.38 113.877 260.709C117.477 266.11 127.332 280.679 137.952 295.744C151.228 314.575 177.103 330.779 194.653 329.027C208.694 327.626 228.104 317.057 236.054 311.948H266.879C274.98 311.948 347.206 303.846 353.056 295.306C358.906 286.766 351.706 274.942 335.731 261.147C322.95 250.111 297.105 232.17 285.78 224.579C286.305 221.441 287.04 211.573 285.78 197.208C284.52 182.844 281.655 169.327 280.38 164.363C291.255 154.218 316.2 130.774 328.98 118.161C344.956 102.395 352.156 91.8849 344.506 79.4037Z" stroke="#F7F7F7" stroke-width="2"/>
<path d="M195.595 126.962C213.997 109.436 246.966 129.152 252.333 139.886C255.108 145.436 260.613 158.244 258.686 168.584C256.276 181.508 249.047 189.614 231.522 195.309C213.997 201.005 206.33 193.995 191.652 178.441C176.975 162.888 177.194 144.487 195.595 126.962Z" fill="#A3E9FF"/>
<path d="M203.263 152.811C213.61 142.976 233.987 150.457 238.751 155.221C242.037 158.507 247.064 167.382 245.98 173.184C244.625 180.437 235.024 193.427 225.169 196.624C215.315 199.82 204.944 192.427 196.691 183.699C188.438 174.971 192.916 162.646 203.263 152.811Z" fill="#051981"/>
<path d="M208.958 263.219C219.253 273.774 236.201 266.141 240.941 261.028C244.211 257.502 249.687 245.788 248.609 239.56C247.261 231.776 237.996 221.68 228.192 218.249C218.387 214.819 208.069 222.753 199.857 232.121C191.646 241.488 198.663 252.664 208.958 263.219Z" fill="#A50000"/>
<path d="M187.466 208.672C181.867 208.672 170.183 201.818 173.347 196.249C175.879 191.794 185.437 189.823 189.9 189.395" stroke="#FFFBA3" stroke-width="3"/>
<path d="M187.214 208.672C183.051 208.672 174.362 216.15 176.715 222.225C178.598 227.085 185.705 229.235 189.024 229.702" stroke="#FFFBA3" stroke-width="3"/>
<path d="M199.103 221.249C202.352 220.663 201.257 205.561 200.395 197.626C199.841 196.344 199.62 196.125 197.995 195.978C195.965 195.795 191.534 197.809 189.504 200.922C187.473 204.035 186.365 208.247 188.211 213.924C190.057 219.601 195.042 221.981 199.103 221.249Z" fill="#FFFBA3"/>
<path d="M97.8931 197.062C94.0376 166.568 100.814 131.197 104.684 117.323C104.392 117.177 103.282 116.972 101.179 117.323C99.0761 117.673 93.0007 116.593 90.2259 116.008C89.4227 116.446 74.6208 160.271 77.5202 191.585C80.8062 227.074 88.5464 240.582 96.5787 263.657L113.885 260.809C110.161 252.266 101.749 227.556 97.8931 197.062Z" fill="#051981" stroke="#0D0D0D"/>
<path d="M169.527 107.246C175.003 82.1995 185.518 30.2669 183.766 22.9063C182.013 15.5458 185.372 8.74023 187.271 6.25751" stroke="#F7F7F7" stroke-width="2"/>
<path d="M156.035 107.521C153.059 82.056 146.094 29.5294 142.041 23.1404C137.987 16.7514 138.948 9.22307 139.934 6.25751" stroke="#F7F7F7" stroke-width="2"/>
<path d="M162.955 107.246C163.758 84.5362 164.313 36.094 160.107 24.0017C155.901 11.9094 156.748 3.62876 157.698 1" stroke="#F7F7F7" stroke-width="2"/>
<path d="M190.776 288.411C196.185 313.295 206.57 364.889 204.839 372.202C203.108 379.515 206.426 386.276 208.301 388.742" stroke="#F7F7F7" stroke-width="2"/>
<path d="M177.065 287.973C174.089 313.306 167.124 365.562 163.07 371.918C159.017 378.274 159.977 385.763 160.964 388.714" stroke="#F7F7F7" stroke-width="2"/>
<path d="M184.083 288.411C184.883 310.98 185.437 359.123 181.245 371.141C177.052 383.158 177.897 391.387 178.843 394" stroke="#F7F7F7" stroke-width="2"/>
</svg>
