<svg width="327" height="200" viewBox="0 0 327 200" fill="none" xmlns="http://www.w3.org/2000/svg">
<path d="M176 164.556C176 177.334 160.356 204.003 147.644 196.78C137.476 191.002 132.978 169.186 132 159" stroke="#FFFBA3" stroke-width="3"/>
<path d="M176 165.131C176 174.633 193.067 194.464 206.933 189.093C218.027 184.796 222.933 168.574 224 161" stroke="#FFFBA3" stroke-width="3"/>
<path d="M204.706 137.995C203.368 130.579 168.9 133.079 150.788 135.046C147.862 136.31 147.361 136.815 147.026 140.523C146.608 145.158 151.206 155.27 158.311 159.905C165.417 164.539 175.03 167.068 187.987 162.854C200.944 158.641 206.378 147.264 204.706 137.995Z" fill="#FFFBA3"/>
<path d="M317.164 111.781C341.851 70.0275 314.676 25.3226 294.643 15.36C284.286 10.2092 261.579 -2.97091 242.282 0.607498C218.161 5.08051 203.034 18.4995 192.404 51.0305C181.774 83.5615 190.256 102.616 219.284 129.861C248.312 157.105 293.128 152.436 317.164 111.781Z" fill="#FFE6FC"/>
<path d="M13.7255 138.674C-20.7389 102.54 18.0335 37.8006 39.143 27.2616C50.0567 21.8129 75.2444 11.0014 95.5784 14.7869C120.996 19.5187 136.936 33.7141 148.137 68.1271C159.337 102.54 145.552 117.596 114.965 146.417C84.3774 175.238 48.1898 174.808 13.7255 138.674Z" fill="#A3E9FF"/>
<path d="M69.9849 123.581C51.6677 103.165 65.5998 62.9599 74.4729 53.5599C80.593 47.0766 97.1224 37.1576 107.93 39.2964C121.439 41.9699 145.633 60.9146 151.586 80.3582C157.539 99.8018 143.771 120.264 127.514 136.548C111.258 152.832 88.3021 143.997 69.9849 123.581Z" fill="#051981"/>
<path d="M277.633 108.073C298.296 87.8731 283.354 54.617 273.344 45.3162C266.44 38.9012 243.507 28.1554 231.315 30.2716C216.076 32.9169 196.311 51.0954 189.595 70.3339C182.879 89.5724 198.412 109.819 216.751 125.931C235.09 142.043 256.969 128.274 277.633 108.073Z" fill="#A50000"/>
</svg>
