<svg width="608" height="725" viewBox="0 0 608 725" fill="none" xmlns="http://www.w3.org/2000/svg">
<path d="M100.663 22.6762C80.4203 35.0633 87.1976 184.8 93.1165 258.121C91.1929 265.255 83.3502 289.635 67.369 330.075C47.3924 380.625 105.99 429.808 129.074 449.846C152.158 469.884 181.013 489.466 177.018 523.166C173.023 556.866 136.621 601.951 87.3455 641.116C47.9251 672.448 14.69 709.427 3 724H501.083C502.562 720.964 504.634 710.611 501.083 693.488C497.531 676.365 477.703 550.339 468.232 489.466C479.182 482.18 508.718 462.233 539.26 440.738C577.437 413.869 610.288 361.498 606.736 325.976C603.895 297.559 582.469 258.272 572.11 242.181V179.791C572.11 163.396 555.685 17.2114 538.372 5.37084C521.059 -6.46969 497.087 8.10327 469.12 40.437C446.746 66.304 410.374 118.615 394.985 141.537C388.622 140.474 368.616 138.987 339.494 141.537C310.373 144.087 282.968 149.886 272.906 152.467C252.337 130.455 204.808 79.9662 179.238 54.0992C147.275 21.7654 125.967 7.19246 100.663 22.6762Z" stroke="#F7F7F7" stroke-width="2"/>
<path d="M339.197 521.818C277.376 529.621 203.627 515.333 175.5 507.5C175.204 508.091 176.5 510 176 520.5C175.795 524.81 174.184 530.884 173 536.5C173.888 538.126 264.609 568.921 328.094 563.052C400.041 556.401 427.72 540.257 474.5 524L469.5 490C452.179 497.537 401.018 514.014 339.197 521.818Z" fill="#051981"/>
</svg>
