<svg width="684" height="795" viewBox="0 0 684 795" fill="none" xmlns="http://www.w3.org/2000/svg">
<path d="M112.952 25.1208C90.1619 39.0896 97.792 207.947 104.456 290.63C102.29 298.676 93.4605 326.168 75.4684 371.772C52.9782 428.777 118.949 484.242 144.938 506.838C170.927 529.435 203.413 551.518 198.914 589.521C194.416 627.524 153.434 678.367 97.9585 722.532C53.5779 757.865 16.1609 799.566 3 816H563.755C565.421 812.576 567.753 800.901 563.755 781.592C559.757 762.282 537.433 620.163 526.771 551.518C539.099 543.301 572.351 520.807 606.736 496.567C649.718 466.267 686.702 407.208 682.703 367.15C679.505 335.104 655.382 290.801 643.72 272.656V202.298C643.72 183.81 625.228 18.9581 605.737 5.60561C586.245 -7.74689 559.257 8.68696 527.771 45.1496C502.582 74.3197 461.633 133.31 444.307 159.159C437.144 157.961 414.62 156.284 381.835 159.159C349.049 162.035 318.196 168.575 306.867 171.485C283.711 146.663 230.201 89.7264 201.413 60.5563C165.429 24.0937 141.44 7.65985 112.952 25.1208Z" stroke="#F7F7F7" stroke-width="2"/>
<path d="M381.5 588C311.9 596.8 231.167 581.333 199.5 572.5C199.167 573.167 198.7 575.7 199.5 580.5C200.3 585.3 197.833 599.167 196.5 605.5C197.5 607.333 297.527 641.118 369 634.5C450 627 480.833 609.333 533.5 591L527 551.5C507.5 560 451.1 579.2 381.5 588Z" fill="#051981" stroke="#0D0D0D"/>
</svg>
