<svg width="96" height="67" viewBox="0 0 96 67" fill="none" xmlns="http://www.w3.org/2000/svg">
<path d="M46 31.5559C46 44.3344 30.3556 71.0027 17.6444 63.78C7.47556 58.0019 2.97778 36.1858 2 26" stroke="#FFFBA3" stroke-width="3"/>
<path d="M46 32.1313C46 41.6333 63.0667 61.4635 76.9333 56.0929C88.0267 51.7963 92.9333 35.5741 94 28" stroke="#FFFBA3" stroke-width="3"/>
<path d="M74.7056 4.99495C73.3681 -2.42067 38.8999 0.0792674 20.788 2.04553C17.8623 3.30956 17.3607 3.81518 17.0263 7.52299C16.6083 12.1578 21.206 22.27 28.3114 26.9047C35.4168 31.5395 45.03 34.0675 57.987 29.8541C70.9439 25.6407 76.3775 14.2645 74.7056 4.99495Z" fill="#FFFBA3"/>
</svg>
